<svg width="74" height="82" viewBox="0 0 74 82" fill="none" xmlns="http://www.w3.org/2000/svg">
<g clip-path="url(#clip0)">
<path d="M21.5488 28.059C29.1341 28.059 35.2832 21.7778 35.2832 14.0295C35.2832 6.28122 29.1341 0 21.5488 0C13.9635 0 7.81439 6.28122 7.81439 14.0295C7.81439 21.7778 13.9635 28.059 21.5488 28.059Z" fill="#3131CF"/>
<path d="M43.5294 49.8649H32.5182L25.9888 68.7566L13.5568 63.9794V51.4012C13.5568 50.9174 13.3792 50.4336 13.024 50.1313C12.728 49.7684 12.3136 49.587 11.84 49.587C10.8336 49.587 10.064 50.4336 10.064 51.4012V65.7935L21.4304 70.8732L22.792 71.4779C24.0352 72.3245 24.864 73.7153 24.864 75.3481C24.864 77.8879 22.8512 79.944 20.3648 79.944C19.7136 79.944 19.0624 79.823 18.4704 79.5207L0 72.1431V49.3451C0 39.6092 7.696 31.7478 17.2272 31.7478H26.2848C35.816 31.7478 43.5294 40.1894 43.5294 49.8649Z" fill="#3131CF"/>
<path d="M22.7328 71.4779L21.3712 70.8732C21.8448 70.9941 22.3184 71.1755 22.7328 71.4779Z" fill="#3131CF"/>
<path d="M26.2874 81.0837L26.2874 81.0837L26.2898 81.0761L34.7536 54.1719C34.7595 54.1553 34.7739 54.1327 34.8018 54.1127C34.8323 54.0909 34.8591 54.0863 34.8688 54.0863H73.112C73.1373 54.0863 73.1778 54.0966 73.2203 54.1539C73.2605 54.208 73.2726 54.2666 73.2697 54.3074L64.8214 81.1626C64.8212 81.1632 64.821 81.1638 64.8208 81.1644C64.8149 81.1811 64.8005 81.2037 64.7726 81.2237C64.7421 81.2454 64.7152 81.25 64.7056 81.25H26.4032C26.3757 81.25 26.3421 81.2383 26.312 81.1959C26.2799 81.1505 26.2794 81.1081 26.2874 81.0837Z" fill="#31FFCF" stroke="#3131CF" stroke-width="1.5" stroke-linejoin="round"/>
<path d="M49.9317 70.8732C51.6646 70.8732 53.0693 69.4382 53.0693 67.6681C53.0693 65.8981 51.6646 64.4631 49.9317 64.4631C48.1989 64.4631 46.7941 65.8981 46.7941 67.6681C46.7941 69.4382 48.1989 70.8732 49.9317 70.8732Z" fill="#3131CF"/>
</g>
<defs>
<clipPath id="clip0">
<rect width="74" height="82" fill="white"/>
</clipPath>
</defs>
</svg>
