<svg width="27" height="27" viewBox="0 0 27 27" fill="none" xmlns="http://www.w3.org/2000/svg">
<path d="M4.07312 22.1017C2.33748 20.1793 1.18084 18.08 0.603193 15.8037C0.0411824 13.5447 0.0801869 11.3247 0.720207 9.14356C1.37586 6.97979 2.60428 5.08481 4.40545 3.45863C6.20663 1.83244 8.21686 0.803414 10.4362 0.371542C12.6711 -0.0430104 14.8836 0.144293 17.0736 0.933452C19.2792 1.73993 21.2498 3.10438 22.9855 5.02678C24.7211 6.94919 25.8699 9.03989 26.4319 11.2989C27.0096 13.5752 26.9706 15.7952 26.3149 17.959C25.6749 20.1401 24.4543 22.0437 22.6531 23.6699C20.852 25.2961 18.8339 26.3164 16.599 26.731C14.3797 27.1629 12.1672 26.9756 9.96158 26.1691C7.77158 25.3799 5.80877 24.0241 4.07312 22.1017ZM8.3336 18.2552C9.16233 19.1731 10.1294 19.8089 11.2347 20.1628C12.34 20.5166 13.4778 20.5581 14.6481 20.2875C15.8357 20.0012 16.9404 19.3967 17.9622 18.4742C18.984 17.5516 19.6892 16.5221 20.0776 15.3855C20.4834 14.2332 20.5666 13.0893 20.3272 11.9536C20.0878 10.818 19.5537 9.79125 18.725 8.87334C17.8963 7.95543 16.9292 7.31958 15.8239 6.96577C14.7185 6.61196 13.5721 6.57821 12.3845 6.86451C11.2142 7.13517 10.1182 7.73178 9.09637 8.65433C8.07455 9.57687 7.36076 10.6143 6.955 11.7665C6.56655 12.9031 6.49203 14.0393 6.73142 15.1749C6.97081 16.3105 7.50487 17.3373 8.3336 18.2552Z" fill="#31FFCF"/>
</svg>
