<svg width="30" height="34" viewBox="0 0 30 34" fill="none" xmlns="http://www.w3.org/2000/svg">
<path d="M24.8223 21.6701L21.1077 26.1765L20.0892 25.3369C19.6776 24.9976 19.2551 24.8394 18.8216 24.8622C18.4087 24.902 18.0072 25.1585 17.6171 25.6318L13.6735 30.416C12.0791 32.3502 10.3023 33.3738 8.34305 33.4867C6.38742 33.6372 4.3396 32.8304 2.19959 31.0664L0.162454 29.3872L3.8516 24.9117L4.31458 25.2933C5.05536 25.904 5.77207 26.1664 6.46473 26.0808C7.14042 26.0157 7.7751 25.6231 8.36875 24.9029L11.6254 20.9521C12.5583 19.8203 13.4371 19.1106 14.2618 18.8227C15.1241 18.5313 16.06 18.6117 17.0697 19.0638C16.4332 18.159 16.1672 17.2658 16.2718 16.3844C16.4138 15.4993 16.9513 14.4909 17.8842 13.3591L21.1408 9.40832C21.7345 8.68812 21.9988 7.99018 21.9337 7.31448C21.8856 6.61821 21.4911 5.96476 20.7503 5.35415L20.2874 4.97251L23.9765 0.496997L26.0136 2.17619C28.1536 3.9402 29.3364 5.79639 29.562 7.74479C29.8251 9.68957 29.1594 11.6291 27.565 13.5633L23.6215 18.3475C23.2313 18.8208 23.0562 19.2639 23.0959 19.6768C23.1563 20.1067 23.3922 20.4912 23.8038 20.8305L24.8223 21.6701Z" fill="#EDEDFF"/>
</svg>
